<svg xmlns="http://www.w3.org/2000/svg" width="300" height="76" viewBox="0 0 300 76" role="img" aria-label="Install on Mac">
  <rect x="1" y="1" width="298" height="74" rx="14" fill="#ffffff" stroke="#e3e3dd" stroke-width="1.5"/>
  <g transform="translate(25,21)" fill="#3061e8">
    <path d="M17.6 17.4c0-3 2.5-4.5 2.6-4.6-1.4-2.1-3.7-2.4-4.5-2.4-1.9-.2-3.7 1.1-4.7 1.1s-2.4-1.1-4-1.1c-2 0-3.9 1.2-4.9 3-2.1 3.6-.5 9 1.5 12 1 1.4 2.1 3 3.6 3 1.4-.1 2-.9 3.7-.9s2.2.9 3.7.9 2.5-1.4 3.4-2.8c1.1-1.6 1.5-3.2 1.5-3.3-.1 0-3-1.2-3-4.8z"/>
    <path d="M14.6 8.3c.8-1 1.3-2.3 1.2-3.6-1.2.1-2.6.8-3.5 1.8-.8.8-1.4 2.1-1.2 3.4 1.3.1 2.7-.7 3.5-1.6z"/>
  </g>
  <text x="76" y="33" font-family="Helvetica, Arial, sans-serif" font-size="21" font-weight="700" fill="#1b1b18">Mac</text>
  <text x="76" y="53" font-family="Helvetica, Arial, sans-serif" font-size="12.5" fill="#76766c">Step-by-step install &#8594;</text>
</svg>
